<?xml version="1.0" encoding="UTF-8" standalone="no"?>
<!DOCTYPE svg PUBLIC "-//W3C//DTD SVG 1.1//EN"
 "http://www.w3.org/Graphics/SVG/1.1/DTD/svg11.dtd">
<!-- Generated by graphviz version 2.38.0 (20140413.2041)
 -->
<!-- Title: also_likes Pages: 1 -->
<svg width="1044pt" height="184pt"
 viewBox="0.00 0.00 1043.86 183.71" xmlns="http://www.w3.org/2000/svg" xmlns:xlink="http://www.w3.org/1999/xlink">
<g id="graph0" class="graph" transform="scale(1 1) rotate(0) translate(4 179.711)">
<title>also_likes</title>
<polygon fill="white" stroke="none" points="-4,4 -4,-179.711 1039.86,-179.711 1039.86,4 -4,4"/>
<!-- Readers -->
<g id="node1" class="node"><title>Readers</title>
<text text-anchor="middle" x="44.5" y="-153.911" font-family="Times,serif" font-size="16.00">Readers</text>
</g>
<!-- Documents -->
<g id="node2" class="node"><title>Documents</title>
<text text-anchor="middle" x="44.5" y="-31.5553" font-family="Times,serif" font-size="16.00">Documents</text>
</g>
<!-- Readers&#45;&gt;Documents -->
<g id="edge1" class="edge"><title>Readers&#45;&gt;Documents</title>
<path fill="none" stroke="black" d="M44.5,-139.467C44.5,-119.715 44.5,-87.0881 44.5,-63.8263"/>
<polygon fill="black" stroke="black" points="48.0001,-63.5673 44.5,-53.5673 41.0001,-63.5674 48.0001,-63.5673"/>
<text text-anchor="middle" x="69" y="-101.511" font-family="Times,serif" font-size="14.00">Size: 3m</text>
</g>
<!-- d736 -->
<g id="node3" class="node"><title>d736</title>
<ellipse fill="#31b211" stroke="#31b211" cx="1000.5" cy="-35.3553" rx="35.2113" ry="35.2113"/>
<text text-anchor="middle" x="1000.5" y="-31.5553" font-family="Times,serif" font-size="16.00">d736</text>
</g>
<!-- 9554 -->
<g id="node4" class="node"><title>9554</title>
<polygon fill="none" stroke="black" points="855.5,-175.711 801.5,-175.711 801.5,-139.711 855.5,-139.711 855.5,-175.711"/>
<text text-anchor="middle" x="828.5" y="-153.911" font-family="Times,serif" font-size="16.00">9554</text>
</g>
<!-- 9554&#45;&gt;d736 -->
<g id="edge3" class="edge"><title>9554&#45;&gt;d736</title>
<path fill="none" stroke="black" d="M854.58,-139.676C880.464,-122.623 921.131,-95.4365 955.5,-70.7107 958.552,-68.5151 961.696,-66.2086 964.838,-63.8734"/>
<polygon fill="black" stroke="black" points="967.187,-66.4863 973.08,-57.6814 962.982,-60.8897 967.187,-66.4863"/>
</g>
<!-- de99 -->
<g id="node12" class="node"><title>de99</title>
<ellipse fill="none" stroke="black" cx="742.5" cy="-35.3553" rx="33.8824" ry="33.8824"/>
<text text-anchor="middle" x="742.5" y="-31.5553" font-family="Times,serif" font-size="16.00">de99</text>
</g>
<!-- 9554&#45;&gt;de99 -->
<g id="edge5" class="edge"><title>9554&#45;&gt;de99</title>
<path fill="none" stroke="black" d="M816.178,-139.467C803.576,-121.83 783.639,-93.9279 767.68,-71.5938"/>
<polygon fill="black" stroke="black" points="770.443,-69.4411 761.782,-63.3397 764.748,-73.5108 770.443,-69.4411"/>
</g>
<!-- 526a -->
<g id="node13" class="node"><title>526a</title>
<ellipse fill="none" stroke="black" cx="656.5" cy="-35.3553" rx="33.8824" ry="33.8824"/>
<text text-anchor="middle" x="656.5" y="-31.5553" font-family="Times,serif" font-size="16.00">526a</text>
</g>
<!-- 9554&#45;&gt;526a -->
<g id="edge2" class="edge"><title>9554&#45;&gt;526a</title>
<path fill="none" stroke="black" d="M801.357,-139.582C774.928,-122.68 733.837,-95.8021 699.5,-70.7107 696.549,-68.5543 693.52,-66.2753 690.502,-63.9585"/>
<polygon fill="black" stroke="black" points="692.638,-61.186 682.6,-57.7958 688.333,-66.7057 692.638,-61.186"/>
</g>
<!-- 187e -->
<g id="node14" class="node"><title>187e</title>
<ellipse fill="none" stroke="black" cx="828.5" cy="-35.3553" rx="33.8824" ry="33.8824"/>
<text text-anchor="middle" x="828.5" y="-31.5553" font-family="Times,serif" font-size="16.00">187e</text>
</g>
<!-- 9554&#45;&gt;187e -->
<g id="edge6" class="edge"><title>9554&#45;&gt;187e</title>
<path fill="none" stroke="black" d="M828.5,-139.467C828.5,-123.897 828.5,-100.328 828.5,-79.6515"/>
<polygon fill="black" stroke="black" points="832,-79.4718 828.5,-69.4719 825,-79.4719 832,-79.4718"/>
</g>
<!-- 9f10 -->
<g id="node15" class="node"><title>9f10</title>
<ellipse fill="none" stroke="black" cx="913.5" cy="-35.3553" rx="33.4697" ry="33.4697"/>
<text text-anchor="middle" x="913.5" y="-31.5553" font-family="Times,serif" font-size="16.00">9f10</text>
</g>
<!-- 9554&#45;&gt;9f10 -->
<g id="edge4" class="edge"><title>9554&#45;&gt;9f10</title>
<path fill="none" stroke="black" d="M840.678,-139.467C853.215,-121.715 873.098,-93.5627 888.922,-71.1566"/>
<polygon fill="black" stroke="black" points="891.854,-73.0716 894.764,-62.8842 886.136,-69.0334 891.854,-73.0716"/>
</g>
<!-- 7020 -->
<g id="node5" class="node"><title>7020</title>
<polygon fill="none" stroke="black" points="599.5,-175.711 545.5,-175.711 545.5,-139.711 599.5,-139.711 599.5,-175.711"/>
<text text-anchor="middle" x="572.5" y="-153.911" font-family="Times,serif" font-size="16.00">7020</text>
</g>
<!-- 7020&#45;&gt;d736 -->
<g id="edge8" class="edge"><title>7020&#45;&gt;d736</title>
<path fill="none" stroke="black" d="M599.969,-155.003C664.998,-150.038 832.148,-131.823 955.5,-70.7107 958.869,-69.0417 962.236,-67.1044 965.526,-65.0164"/>
<polygon fill="black" stroke="black" points="967.726,-67.7519 974.004,-59.2176 963.774,-61.9739 967.726,-67.7519"/>
</g>
<!-- 5af8 -->
<g id="node6" class="node"><title>5af8</title>
<ellipse fill="none" stroke="black" cx="572.5" cy="-35.3553" rx="31.6406" ry="31.6406"/>
<text text-anchor="middle" x="572.5" y="-31.5553" font-family="Times,serif" font-size="16.00">5af8</text>
</g>
<!-- 7020&#45;&gt;5af8 -->
<g id="edge10" class="edge"><title>7020&#45;&gt;5af8</title>
<path fill="none" stroke="black" d="M572.5,-139.467C572.5,-123.38 572.5,-98.7509 572.5,-77.5979"/>
<polygon fill="black" stroke="black" points="576,-77.5455 572.5,-67.5455 569,-77.5456 576,-77.5455"/>
</g>
<!-- c6d3 -->
<g id="node7" class="node"><title>c6d3</title>
<ellipse fill="none" stroke="black" cx="150.5" cy="-35.3553" rx="33.8824" ry="33.8824"/>
<text text-anchor="middle" x="150.5" y="-31.5553" font-family="Times,serif" font-size="16.00">c6d3</text>
</g>
<!-- 7020&#45;&gt;c6d3 -->
<g id="edge15" class="edge"><title>7020&#45;&gt;c6d3</title>
<path fill="none" stroke="black" d="M545.162,-155.245C480.476,-150.802 314.397,-133.634 193.5,-70.7107 190.168,-68.9764 186.845,-66.9646 183.607,-64.8014"/>
<polygon fill="black" stroke="black" points="185.447,-61.8134 175.288,-58.8083 181.356,-67.4932 185.447,-61.8134"/>
</g>
<!-- 9e36 -->
<g id="node8" class="node"><title>9e36</title>
<ellipse fill="none" stroke="black" cx="236.5" cy="-35.3553" rx="33.8824" ry="33.8824"/>
<text text-anchor="middle" x="236.5" y="-31.5553" font-family="Times,serif" font-size="16.00">9e36</text>
</g>
<!-- 7020&#45;&gt;9e36 -->
<g id="edge7" class="edge"><title>7020&#45;&gt;9e36</title>
<path fill="none" stroke="black" d="M545.187,-152.627C491.587,-143.789 369.974,-119.619 279.5,-70.7107 276.195,-68.9243 272.892,-66.8764 269.667,-64.6895"/>
<polygon fill="black" stroke="black" points="271.514,-61.7055 261.367,-58.6597 267.4,-67.3688 271.514,-61.7055"/>
</g>
<!-- 9fa3 -->
<g id="node9" class="node"><title>9fa3</title>
<ellipse fill="none" stroke="black" cx="320.5" cy="-35.3553" rx="31.6406" ry="31.6406"/>
<text text-anchor="middle" x="320.5" y="-31.5553" font-family="Times,serif" font-size="16.00">9fa3</text>
</g>
<!-- 7020&#45;&gt;9fa3 -->
<g id="edge14" class="edge"><title>7020&#45;&gt;9fa3</title>
<path fill="none" stroke="black" d="M545.259,-148.621C503.798,-135.657 423.168,-107.864 361.5,-70.7107 358.107,-68.6664 354.706,-66.3496 351.395,-63.9077"/>
<polygon fill="black" stroke="black" points="353.437,-61.062 343.402,-57.6645 349.128,-66.5785 353.437,-61.062"/>
</g>
<!-- d9e3 -->
<g id="node10" class="node"><title>d9e3</title>
<ellipse fill="none" stroke="black" cx="404.5" cy="-35.3553" rx="33.8824" ry="33.8824"/>
<text text-anchor="middle" x="404.5" y="-31.5553" font-family="Times,serif" font-size="16.00">d9e3</text>
</g>
<!-- 7020&#45;&gt;d9e3 -->
<g id="edge17" class="edge"><title>7020&#45;&gt;d9e3</title>
<path fill="none" stroke="black" d="M546.264,-139.454C520.705,-122.458 480.923,-95.5111 447.5,-70.7107 444.565,-68.5328 441.547,-66.2387 438.536,-63.9118"/>
<polygon fill="black" stroke="black" points="440.678,-61.1432 430.646,-57.733 436.362,-66.6543 440.678,-61.1432"/>
</g>
<!-- e9c1 -->
<g id="node11" class="node"><title>e9c1</title>
<ellipse fill="none" stroke="black" cx="489.5" cy="-35.3553" rx="33.4697" ry="33.4697"/>
<text text-anchor="middle" x="489.5" y="-31.5553" font-family="Times,serif" font-size="16.00">e9c1</text>
</g>
<!-- 7020&#45;&gt;e9c1 -->
<g id="edge12" class="edge"><title>7020&#45;&gt;e9c1</title>
<path fill="none" stroke="black" d="M560.608,-139.467C548.446,-121.83 529.203,-93.9279 513.801,-71.5938"/>
<polygon fill="black" stroke="black" points="516.668,-69.5849 508.109,-63.3397 510.905,-73.5589 516.668,-69.5849"/>
</g>
<!-- 7020&#45;&gt;de99 -->
<g id="edge13" class="edge"><title>7020&#45;&gt;de99</title>
<path fill="none" stroke="black" d="M599.19,-139.518C625.184,-122.569 665.62,-95.6561 699.5,-70.7107 702.443,-68.5436 705.467,-66.2572 708.481,-63.9354"/>
<polygon fill="black" stroke="black" points="710.653,-66.6802 716.377,-57.7647 706.342,-61.1648 710.653,-66.6802"/>
</g>
<!-- 7020&#45;&gt;526a -->
<g id="edge11" class="edge"><title>7020&#45;&gt;526a</title>
<path fill="none" stroke="black" d="M584.535,-139.467C596.764,-121.945 616.064,-94.2922 631.6,-72.0324"/>
<polygon fill="black" stroke="black" points="634.494,-74.001 637.347,-63.7976 628.754,-69.9947 634.494,-74.001"/>
</g>
<!-- 7020&#45;&gt;187e -->
<g id="edge9" class="edge"><title>7020&#45;&gt;187e</title>
<path fill="none" stroke="black" d="M599.553,-148.596C641.17,-135.505 722.665,-107.436 785.5,-70.7107 788.743,-68.8152 792.004,-66.6916 795.201,-64.4548"/>
<polygon fill="black" stroke="black" points="797.499,-67.1085 803.458,-58.3481 793.337,-61.4804 797.499,-67.1085"/>
</g>
<!-- 7020&#45;&gt;9f10 -->
<g id="edge16" class="edge"><title>7020&#45;&gt;9f10</title>
<path fill="none" stroke="black" d="M599.891,-152.696C654.264,-143.915 778.59,-119.749 871.5,-70.7107 874.775,-68.982 878.035,-66.9741 881.207,-64.8135"/>
<polygon fill="black" stroke="black" points="883.366,-67.5697 889.347,-58.8244 879.218,-61.9312 883.366,-67.5697"/>
</g>
</g>
</svg>
